<svg width="58" height="50" viewBox="0 0 58 50" fill="none" xmlns="http://www.w3.org/2000/svg">
<path d="M48.1743 31.5904L29.85 0.50872C29.7613 0.355243 29.6328 0.227397 29.4775 0.138084C29.3222 0.0487705 29.1456 0.00114748 28.9655 2.04783e-05C28.7854 -0.00110652 28.6082 0.0443025 28.4518 0.131665C28.2954 0.219027 28.1653 0.345255 28.0746 0.497609L22.5866 9.81104C22.4069 10.1158 22.3123 10.4617 22.3123 10.8137C22.3123 11.1657 22.4069 11.5116 22.5866 11.8164L34.5352 32.0932C34.7151 32.3983 34.974 32.6517 35.2857 32.8277C35.5974 33.0038 35.9509 33.0963 36.3107 33.0959H47.2866C47.4663 33.0954 47.6427 33.0487 47.7982 32.9605C47.9536 32.8723 48.0828 32.7456 48.1726 32.5932C48.2625 32.4409 48.3099 32.268 48.3102 32.0921C48.3105 31.9161 48.2636 31.7431 48.1743 31.5904Z" fill="#363FF9"/>
<path d="M0.1413 47.8349L18.4656 16.7532C18.5555 16.6009 18.6848 16.4745 18.8404 16.3866C18.9959 16.2987 19.1723 16.2524 19.3519 16.2524C19.5315 16.2524 19.708 16.2987 19.8635 16.3866C20.0191 16.4745 20.1483 16.6009 20.2382 16.7532L25.729 26.0582C25.9087 26.3636 26.0033 26.7099 26.0033 27.0623C26.0033 27.4148 25.9087 27.7611 25.729 28.0665L13.7803 48.3432C13.6011 48.6483 13.3428 48.9018 13.0316 49.0778C12.7204 49.2539 12.3672 49.3464 12.0077 49.3459H1.02901C0.848158 49.3468 0.670298 49.3008 0.513509 49.2125C0.35672 49.1242 0.226614 48.9968 0.136418 48.8433C0.0462218 48.6898 -0.000849128 48.5156 1.15957e-05 48.3385C0.00087232 48.1613 0.0496154 47.9876 0.1413 47.8349Z" fill="#363FF9"/>
<path d="M20.2357 49.3394H56.8844C57.0641 49.3392 57.2407 49.2927 57.3963 49.2045C57.5519 49.1163 57.681 48.9895 57.7707 48.8369C57.8604 48.6843 57.9075 48.5113 57.9073 48.3352C57.907 48.1591 57.8594 47.9862 57.7693 47.8339L52.287 38.5233C52.1071 38.2181 51.8483 37.9647 51.5366 37.7887C51.2249 37.6127 50.8713 37.5202 50.5115 37.5205H26.6142C26.2544 37.5202 25.9009 37.6127 25.5892 37.7887C25.2775 37.9647 25.0187 38.2181 24.8388 38.5233L19.3509 47.8339C19.2607 47.9862 19.2131 48.1591 19.2129 48.3352C19.2126 48.5113 19.2596 48.6843 19.3493 48.8369C19.439 48.9895 19.5682 49.1163 19.7238 49.2045C19.8794 49.2927 20.0559 49.3392 20.2357 49.3394Z" fill="#363FF9"/>
</svg>
