<svg xmlns="http://www.w3.org/2000/svg" viewBox="0 0 425 513">
    <g id="Shadow" transform="matrix(1,0,0,1,4.5,8)">
        <path
            d="M363.3 266.7C365.1 266.3 371.6 243.7 371.4 244.4L369.3 232C368.7 228.2 357.6 214.4 336.1 190.6 335.7 186 343.3 179.3 358.8 170.6L402.6 132.1C412.4 119.5 418.2 99.3 420.1 71.5L419.5 65C417.8 45.4 403.6 29.6 376.9 17.4 361.1 6.7 332.7 1 291.7.1 257.7 3 213.3 15.1 158.7 36.2 143.7 47.1 126.6 57.9 107.4 68.6L107.7 72C109 71.9 110.7 71.2 112.8 70 115 69.8 116.2 70.8 116.4 72.8L119.8 70.9 121.5 70.8 121.6 72.4C121.7 74 109.8 83.3 85.7 100.3L87.6 103.3 85.9 103.4 82.2 102.1C82.3 103.1 80.6 103.8 77.1 104.1L77.3 105.9 81.3 110.3C80 110.4 78.2 110 75.9 109.2 68.1 109.9 60.5 115.5 53 126.1L54.9 129.1C61.4 123.1 65.2 120.1 66.3 120L66.7 124.9C65.6 125 63.9 125.7 61.6 126.9L65.7 133.1C73.6 124.6 82.3 117.3 91.8 111.2 96.5 112.4 99 113.9 99.1 115.5L102.7 115.2C128.5 96.1 154 82.3 179.3 73.8L179.6 77.2C174.9 84.2 171.7 87.8 170 88 170.2 90.4 171 92.5 172.5 94.3 172.9 98.6 161.4 127.6 138.1 181.2 85.2 305.8 40.8 398 4.7 457.6 4.8 458.8 5.5 460.4 6.8 462.4 15.7 460.3 21.3 458.1 23.7 456L25.6 455.8 25.9 459.2 29.2 458.9 32.6 457C32.7 458 33.8 458.5 36.1 458.3L36.4 461.7C36.7 465 34.8 470 30.8 476.9 27.2 481 23.3 489.6 19.2 502.7L19.3 504.3 22.6 504C37 487.9 47.9 472.1 55.4 456.7 97.4 444.4 129.4 432.3 151.6 420.4 173.9 418.5 190.9 412.6 202.5 402.9L202.3 401.1 193.9 403.6 192 403.8 191.8 402C208.2 399.5 219.5 395.9 225.8 390.9 257.7 366.3 281.8 348.9 298.1 338.6 331.6 314 353.4 290 363.3 266.7ZM73.3 115.8 71.6 115.9 71.3 112.8 78.2 112.2 78.3 113.8C77.2 113.9 75.5 114.5 73.3 115.8ZM39.6 452.9C35.6 451.1 32 450.4 28.9 450.7L28.5 445.8C28.3 443.9 29.4 442.6 31.8 442.1 34 441.9 35.3 443.5 35.5 446.7 41.3 439.6 44.5 436 45.1 435.9L48.8 437.4C47.6 447.4 44.5 452.5 39.6 452.9ZM399.7 76.2C398 76.4 394.6 71.1 389.7 60.6L389.4 57.5C392.6 57.2 395.9 62.4 399.4 73.1L399.7 76.2ZM394.9 38.9 393.5 42.2 344.6 21.8C377.2 22.9 394 28.6 394.9 38.9ZM188.4 216.2 181.5 216.8 181.2 213.7 188.1 213.1 188.4 216.2ZM182.8 109.7 184.5 109.6 184.9 114.5C183.3 114.6 181.2 117 178.6 121.6L178.3 118.2C181.4 114.5 183 111.7 182.8 109.7ZM168.3 143.9 168.9 150.4 167.2 150.5 166.6 144 168.3 143.9ZM160.7 156.1 164 155.8C163.7 161.2 162.2 164.1 159.5 164.3L157.8 164.4C159.9 160.8 160.9 158 160.7 156.1ZM155 173.1 156.9 172.9 157 174.5 153.9 179.7 150.6 180 150.5 178.4C153.8 178.1 155.3 176.4 155 173.1ZM149.4 188.4 148.4 196.6 146.7 196.7 146 188.6 149.4 188.4ZM93.3 347.9C91.1 359.1 88.7 364.8 86.2 365L86.1 363.4C85.5 357.9 87.9 352.7 93.3 347.9ZM83 370.2 83.1 371.8C83.3 374 82.3 375.3 80.1 375.4L80 373.8C79.8 371.9 80.8 370.7 83 370.2ZM80 416.5 85.2 416 85.4 417.8C84.1 417.9 82.4 418.6 80.3 419.8L77 420.1C76.8 418.4 77.9 417.1 80 416.5ZM228 370.8C198.8 385.2 181.6 395 176.5 400.1 144.9 411.1 129.2 417.9 129.5 420.6 101.4 431.7 82.9 439.9 74 445 71.9 445.2 68.9 444.4 64.9 442.6 64.4 436.9 67 432.3 72.5 428.6 77.4 428.2 82.1 428.9 86.6 430.8 91.8 428.1 100.9 425.1 113.8 421.9L113.5 418.5 103.1 419.4C104.4 417.6 114.4 412.9 133.2 405.3L138.4 404.8 138.5 406.4C129.6 407.2 124.7 409.8 123.6 414.5 123.8 416.6 125 417.5 127.2 417.3 133.9 413.1 137.2 410.6 137.1 409.9 149.8 407.5 184.9 389.1 242.4 354.8L242.7 357.9C242.8 359.4 237.9 363.6 228 370.8ZM139.8 399.8C148.2 399.1 155.4 395.7 161.4 389.8 163.8 389.6 165.1 390.5 165.2 392.6 161.1 393 153.2 396.4 141.7 403L140 403.1 139.8 399.8ZM282.1 290.5 238 325.5C205.2 347 187.6 357.8 185 358 132.8 386.7 100.3 401.6 87.7 402.7L85.8 402.9C87.4 397 110.6 349.5 155.6 260.1 175.4 258.4 206.6 249.2 249.1 232.4L259.5 231.5C281 229.6 297.1 233.8 307.7 243.8L308.3 250.3C300.4 273.2 291.6 286.6 282.1 290.5ZM195.9 242 203 241.4 203.1 243 196 243.6 195.9 242ZM295.6 225.1 300.8 224.6C305.6 226.9 308.1 228.9 308.3 230.7L308.4 232.3C303.8 232.7 299.5 230.3 295.6 225.1ZM309.7 144.8C305.1 150.3 292.5 159.7 271.9 172.9 265.1 173.5 239.8 183.3 196 202.5 193.8 201.5 191.5 201.1 189 201.3L188.7 198.2C188.2 191.9 191 184 197.2 174.4 200.6 156.4 204.3 146.1 208.4 143.6L244.9 61.5C244.5 56.4 252.3 52.5 268.3 49.8L273.5 49.3 273.9 54C289.6 51.6 299.4 50.2 303.2 49.9 332.2 47.4 347.3 53.3 348.5 67.4L351.8 67.1 351.1 58.8 354.7 58.5C363.2 63.2 367.8 68.9 368.4 75.6 368.8 80.2 366.3 85.9 361 92.7 358.8 92.9 357.5 91.3 357.3 88.1L353.7 88.4 352.9 98.4C338.2 120.4 327.5 131.7 320.9 132.3 314.9 140.6 311.2 144.7 309.7 144.8ZM332.1 202.3C329.1 200.3 326.7 199.4 324.9 199.5L324.5 194.6 327.8 194.3 335.1 198.6C335.4 200.9 334.4 202.1 332.1 202.3ZM355.3 229.8C358.5 231.1 360.4 232.5 360.8 233.8L359.2 234.2 359.3 234.3C359 234.3 358.6 234.4 358.3 234.5L355.9 236.4 355.3 229.8ZM357.5 243.6 357.2 242.3 361.4 241.3 361.7 242.6 357.5 243.6ZM367.6 254.9C367.825 254.863 367.1 256.9 367.1 256.9 367.3 256.2 367.5 255.5 367.6 254.9Z"
            fill="#05050733" />
    </g>
    <path
        d="M363.3 266.7C365.1 266.3 371.6 243.7 371.4 244.4L369.3 232C368.7 228.2 357.6 214.4 336.1 190.6 335.7 186 343.3 179.3 358.8 170.6L402.6 132.1C412.4 119.5 418.2 99.3 420.1 71.5L419.5 65C417.8 45.4 403.6 29.6 376.9 17.4 361.1 6.7 332.7 1 291.7.1 257.7 3 213.3 15.1 158.7 36.2 143.7 47.1 126.6 57.9 107.4 68.6L107.7 72C109 71.9 110.7 71.2 112.8 70 115 69.8 116.2 70.8 116.4 72.8L119.8 70.9 121.5 70.8 121.6 72.4C121.7 74 109.8 83.3 85.7 100.3L87.6 103.3 85.9 103.4 82.2 102.1C82.3 103.1 80.6 103.8 77.1 104.1L77.3 105.9 81.3 110.3C80 110.4 78.2 110 75.9 109.2 68.1 109.9 60.5 115.5 53 126.1L54.9 129.1C61.4 123.1 65.2 120.1 66.3 120L66.7 124.9C65.6 125 63.9 125.7 61.6 126.9L65.7 133.1C73.6 124.6 82.3 117.3 91.8 111.2 96.5 112.4 99 113.9 99.1 115.5L102.7 115.2C128.5 96.1 154 82.3 179.3 73.8L179.6 77.2C174.9 84.2 171.7 87.8 170 88 170.2 90.4 171 92.5 172.5 94.3 172.9 98.6 161.4 127.6 138.1 181.2 85.2 305.8 40.8 398 4.7 457.6 4.8 458.8 5.5 460.4 6.8 462.4 15.7 460.3 21.3 458.1 23.7 456L25.6 455.8 25.9 459.2 29.2 458.9 32.6 457C32.7 458 33.8 458.5 36.1 458.3L36.4 461.7C36.7 465 34.8 470 30.8 476.9 27.2 481 23.3 489.6 19.2 502.7L19.3 504.3 22.6 504C37 487.9 47.9 472.1 55.4 456.7 97.4 444.4 129.4 432.3 151.6 420.4 173.9 418.5 190.9 412.6 202.5 402.9L202.3 401.1 193.9 403.6 192 403.8 191.8 402C208.2 399.5 219.5 395.9 225.8 390.9 257.7 366.3 281.8 348.9 298.1 338.6 331.6 314 353.4 290 363.3 266.7ZM73.3 115.8 71.6 115.9 71.3 112.8 78.2 112.2 78.3 113.8C77.2 113.9 75.5 114.5 73.3 115.8ZM39.6 452.9C35.6 451.1 32 450.4 28.9 450.7L28.5 445.8C28.3 443.9 29.4 442.6 31.8 442.1 34 441.9 35.3 443.5 35.5 446.7 41.3 439.6 44.5 436 45.1 435.9L48.8 437.4C47.6 447.4 44.5 452.5 39.6 452.9ZM399.7 76.2C398 76.4 394.6 71.1 389.7 60.6L389.4 57.5C392.6 57.2 395.9 62.4 399.4 73.1L399.7 76.2ZM394.9 38.9 393.5 42.2 344.6 21.8C377.2 22.9 394 28.6 394.9 38.9ZM188.4 216.2 181.5 216.8 181.2 213.7 188.1 213.1 188.4 216.2ZM182.8 109.7 184.5 109.6 184.9 114.5C183.3 114.6 181.2 117 178.6 121.6L178.3 118.2C181.4 114.5 183 111.7 182.8 109.7ZM168.3 143.9 168.9 150.4 167.2 150.5 166.6 144 168.3 143.9ZM160.7 156.1 164 155.8C163.7 161.2 162.2 164.1 159.5 164.3L157.8 164.4C159.9 160.8 160.9 158 160.7 156.1ZM155 173.1 156.9 172.9 157 174.5 153.9 179.7 150.6 180 150.5 178.4C153.8 178.1 155.3 176.4 155 173.1ZM149.4 188.4 148.4 196.6 146.7 196.7 146 188.6 149.4 188.4ZM93.3 347.9C91.1 359.1 88.7 364.8 86.2 365L86.1 363.4C85.5 357.9 87.9 352.7 93.3 347.9ZM83 370.2 83.1 371.8C83.3 374 82.3 375.3 80.1 375.4L80 373.8C79.8 371.9 80.8 370.7 83 370.2ZM80 416.5 85.2 416 85.4 417.8C84.1 417.9 82.4 418.6 80.3 419.8L77 420.1C76.8 418.4 77.9 417.1 80 416.5ZM228 370.8C198.8 385.2 181.6 395 176.5 400.1 144.9 411.1 129.2 417.9 129.5 420.6 101.4 431.7 82.9 439.9 74 445 71.9 445.2 68.9 444.4 64.9 442.6 64.4 436.9 67 432.3 72.5 428.6 77.4 428.2 82.1 428.9 86.6 430.8 91.8 428.1 100.9 425.1 113.8 421.9L113.5 418.5 103.1 419.4C104.4 417.6 114.4 412.9 133.2 405.3L138.4 404.8 138.5 406.4C129.6 407.2 124.7 409.8 123.6 414.5 123.8 416.6 125 417.5 127.2 417.3 133.9 413.1 137.2 410.6 137.1 409.9 149.8 407.5 184.9 389.1 242.4 354.8L242.7 357.9C242.8 359.4 237.9 363.6 228 370.8ZM139.8 399.8C148.2 399.1 155.4 395.7 161.4 389.8 163.8 389.6 165.1 390.5 165.2 392.6 161.1 393 153.2 396.4 141.7 403L140 403.1 139.8 399.8ZM282.1 290.5 238 325.5C205.2 347 187.6 357.8 185 358 132.8 386.7 100.3 401.6 87.7 402.7L85.8 402.9C87.4 397 110.6 349.5 155.6 260.1 175.4 258.4 206.6 249.2 249.1 232.4L259.5 231.5C281 229.6 297.1 233.8 307.7 243.8L308.3 250.3C300.4 273.2 291.6 286.6 282.1 290.5ZM195.9 242 203 241.4 203.1 243 196 243.6 195.9 242ZM295.6 225.1 300.8 224.6C305.6 226.9 308.1 228.9 308.3 230.7L308.4 232.3C303.8 232.7 299.5 230.3 295.6 225.1ZM309.7 144.8C305.1 150.3 292.5 159.7 271.9 172.9 265.1 173.5 239.8 183.3 196 202.5 193.8 201.5 191.5 201.1 189 201.3L188.7 198.2C188.2 191.9 191 184 197.2 174.4 200.6 156.4 204.3 146.1 208.4 143.6L244.9 61.5C244.5 56.4 252.3 52.5 268.3 49.8L273.5 49.3 273.9 54C289.6 51.6 299.4 50.2 303.2 49.9 332.2 47.4 347.3 53.3 348.5 67.4L351.8 67.1 351.1 58.8 354.7 58.5C363.2 63.2 367.8 68.9 368.4 75.6 368.8 80.2 366.3 85.9 361 92.7 358.8 92.9 357.5 91.3 357.3 88.1L353.7 88.4 352.9 98.4C338.2 120.4 327.5 131.7 320.9 132.3 314.9 140.6 311.2 144.7 309.7 144.8ZM332.1 202.3C329.1 200.3 326.7 199.4 324.9 199.5L324.5 194.6 327.8 194.3 335.1 198.6C335.4 200.9 334.4 202.1 332.1 202.3ZM355.3 229.8C358.5 231.1 360.4 232.5 360.8 233.8L359.2 234.2 359.3 234.3C359 234.3 358.6 234.4 358.3 234.5L355.9 236.4 355.3 229.8ZM357.5 243.6 357.2 242.3 361.4 241.3 361.7 242.6 357.5 243.6ZM367.6 254.9C367.825 254.863 367.1 256.9 367.1 256.9 367.3 256.2 367.5 255.5 367.6 254.9Z"
        fill="#f9dc3e" />
</svg>