<svg width="480" height="457" viewBox="0 0 480 457" fill="none" xmlns="http://www.w3.org/2000/svg">
<path d="M42.2031 105.789L3.99219 96.5937V39.6719L42.2031 52.8359V105.789Z" fill="#0B4819"/>
<path d="M71.3281 323.383L34.8047 330.602V118.953L71.3281 126.68V323.383Z" fill="#0B4819"/>
<path d="M473.922 437.352L265.719 421.227L371.852 318.266V267.523L220.117 417.695L38.4297 403.648L329.859 90.2344L281.898 92.8281L71.3281 323.383V126.68L91.2734 103.133L42.2031 105.789V52.8359L213.445 39.5781L119.578 147.234V193.047L258.797 36.0703L479.305 19L154.953 357.078L198.133 359.352L433.719 118.391V346.133L407.547 370.734L473.922 374.32V437.352Z" fill="#105C80"/>
<path d="M71.3281 126.68L34.8047 118.953L55.9297 93.5234L91.2734 103.133L71.3281 126.68Z" fill="#0B4819"/>
<path d="M85.9688 190.297V140.93L119.578 147.234V193.047L85.9688 190.297Z" fill="#084010"/>
<path d="M169.641 369.891L123.594 367.234L154.953 357.078L198.133 359.352L169.641 369.891Z" fill="#0C541E"/>
<path d="M85.9688 140.93L186 24.2656L213.445 39.5781L119.578 147.234L85.9688 140.93Z" fill="#1A5C34"/>
<path d="M119.578 193.047L85.9688 190.297L234.547 20.1562L258.797 36.0703L119.578 193.047Z" fill="#0B4819"/>
<path d="M34.8047 330.602L259.336 81.5L281.898 92.8281L71.3281 323.383L34.8047 330.602Z" fill="#1A5C34"/>
<path d="M38.4297 403.648L0 416.75L310.922 78.4531L329.859 90.2344L38.4297 403.648Z" fill="#0B4819"/>
<path d="M193.133 433.102L356.227 270.914L371.852 267.523L220.117 417.695L193.133 433.102Z" fill="#1A5C34"/>
<path d="M371.852 318.266L356.227 326.07V270.914L371.852 267.523V318.266Z" fill="#0B4819"/>
<path d="M265.719 421.227L241.977 437.227L356.227 326.07L371.852 318.266L265.719 421.227Z" fill="#0B4819"/>
<path d="M433.719 346.133L423.188 356.625L394.828 383.273L407.547 370.734L433.719 346.133Z" fill="#13802D"/>
<path d="M198.133 359.352L169.641 369.891L423.188 108.594L433.719 118.391L198.133 359.352Z" fill="#0B4819"/>
<path d="M423.188 356.625V108.594L433.719 118.391V346.133L423.188 356.625Z" fill="#084010"/>
<path d="M466.867 456.273V387.531L473.922 374.32V437.352L466.867 456.273Z" fill="#084010"/>
<path d="M123.594 367.234L472.711 0L479.305 19L154.953 357.078L123.594 367.234Z" fill="#1A5C34"/>
<path d="M466.867 456.273L241.977 437.227L356.227 326.07V270.914L193.133 433.102L0 416.75L310.922 78.4531L259.336 81.5L34.8047 330.602V118.953L55.9297 93.5234L3.99219 96.5938V39.6719L186 24.2656L85.9687 140.93V190.297L234.547 20.1562L472.711 0L123.594 367.234L169.641 369.891L423.187 108.594V356.625L394.828 383.273L466.867 387.531V456.273Z" fill="url(#paint0_radial_108_39)"/>
<defs>
<radialGradient id="paint0_radial_108_39" cx="0" cy="0" r="1" gradientUnits="userSpaceOnUse" gradientTransform="translate(94.1617 86.0179) scale(231.097 231.097)">
<stop stop-color="white"/>
<stop offset="1" stop-color="#007808"/>
</radialGradient>
</defs>
</svg>
