<svg width="700" height="645" viewBox="0 0 700 645" fill="none" xmlns="http://www.w3.org/2000/svg">
    <path fill="#E24329" d="M350.004 644.797L478.904 248.122H221.104L350.004 644.797Z" />
    <path fill="#FC6D26cc" d="M350.004 644.797L221.104 248.122H40.4791L350.004 644.797Z" />
    <path fill="#FCA32680"
        d="M40.4791 248.122L1.30409 368.672C-0.435992 374.031 -0.434664 379.803 1.30789 385.16C3.05043 390.518 6.44471 395.187 11.0041 398.497L350.004 644.897L40.4791 248.122Z" />
    <path fill="#E24329"
        d="M40.4791 248.122H221.104L143.479 9.22161C142.604 6.54704 140.905 4.21756 138.627 2.5659C136.348 0.914246 133.606 0.0249023 130.792 0.0249023C127.977 0.0249023 125.235 0.914246 122.957 2.5659C120.678 4.21756 118.98 6.54704 118.104 9.22161L40.4791 248.122Z" />
    <path fill="#FC6D26cc" d="M350.004 644.797L478.904 248.122H659.529L350.004 644.797Z" />
    <path fill="#FCA32680"
        d="M659.529 248.122L698.704 368.672C700.444 374.031 700.443 379.803 698.7 385.16C696.958 390.518 693.563 395.187 689.004 398.497L350.004 644.897L659.529 248.122Z" />
    <path fill="#E24329"
        d="M659.529 248.122H478.904L556.529 9.1967C557.405 6.52214 559.103 4.19266 561.382 2.541C563.66 0.889344 566.402 0 569.217 0C572.031 0 574.773 0.889344 577.052 2.541C579.33 4.19266 581.029 6.52214 581.904 9.1967L659.529 248.122Z" />
</svg>