<svg xmlns="http://www.w3.org/2000/svg" viewBox="0 0 28 28">
    <circle cx="14" cy="14" r="14" fill="#0769AD33" />
    <path
        d="M20.6573 11.4211C21.9143 11.4211 23.0652 11.0019 23.955 10.3066 23.0312 11.5238 21.5007 12.3196 19.7689 12.3196 16.9477 12.3196 14.6607 10.2077 14.6607 7.6026 14.6607 6.1581 15.3638 4.8653 16.4712 4 15.8901 4.7657 15.5491 5.6981 15.5491 6.7041 15.5491 9.3092 17.8361 11.4211 20.6573 11.4211ZM23.9064 14.6586C22.5512 15.7216 20.7968 16.3628 18.8805 16.3628 14.5874 16.3628 11.1071 13.1447 11.1071 9.1749 11.1071 7.6352 11.6307 6.2086 12.5221 5.0389 10.8413 6.3574 9.7745 8.3248 9.7745 10.5226 9.7745 14.4924 13.2548 17.7106 17.5479 17.7106 20.176 17.7106 22.4994 16.5047 23.9064 14.6586ZM24 18.7701C22.0689 20.6129 19.3937 21.7538 16.4375 21.7538 10.5497 21.7538 5.7768 17.2283 5.7768 11.6458 5.7768 9.8768 6.256 8.214 7.0981 6.7677 5.1832 8.595 4 11.1125 4 13.892 4 19.4745 8.7729 24 14.6607 24 18.6827 24 22.1846 21.8881 24 18.7701Z"
        fill="#78CFF5" />
</svg>