<svg width="467" height="236" viewBox="0 0 467 236" fill="none" xmlns="http://www.w3.org/2000/svg">
    <path
        d="M421.078 46.1334C397.211 55.2 370.411 65.4667 361.344 68.8C352.411 72.2667 345.211 75.2 345.344 75.3334C345.611 75.4667 360.411 73.6 378.411 71.2C396.278 68.8 411.344 67.0667 411.744 67.4667C412.411 68.2667 390.411 157.6 389.078 159.067C388.411 159.867 356.678 156.8 336.411 154C333.211 153.467 331.611 153.733 332.411 154.4C333.211 155.067 347.211 161.2 363.744 168C380.278 174.8 400.011 182.933 407.744 186.133C415.344 189.333 422.411 192 423.211 192C424.011 192 428.278 178 432.944 159.6C446.411 107.067 465.211 34.1334 465.878 31.6C466.278 30.4 466.144 29.3334 465.478 29.4667C464.944 29.4667 444.944 37.0667 421.078 46.1334Z"
        fill="#ffffff80" />
    <path
        d="M46.9441 1.06667C47.3441 1.73333 94.1442 24.9333 151.077 52.8C208.011 80.5333 253.744 103.467 252.811 103.6C251.877 103.867 217.211 102.933 175.744 101.6C134.277 100.267 100.277 99.3333 100.011 99.4667C99.7441 99.6 128.011 130.4 162.677 167.733L225.744 235.867H322.411C382.277 236 418.411 235.467 417.744 234.8C416.944 234.133 369.611 210.667 312.411 182.667C255.211 154.667 208.011 131.467 207.477 130.933C206.944 130.4 212.944 130.133 220.811 130.4C314.277 133.067 364.544 134.267 364.811 134C365.211 133.733 273.344 34.2667 248.811 8.26667L240.811 9.21806e-07H143.611C90.0108 9.21806e-07 46.5441 0.533334 46.9441 1.06667Z"
        fill="#F4D12B" />
    <path
        d="M28.0108 89.6C21.2108 116.267 11.8775 152.933 7.07748 171.2C0.0108139 198.933 -1.05585 204.133 0.810814 203.6C2.94415 203.067 50.9442 184.667 94.8108 167.733C106.277 163.2 115.611 159.333 115.211 159.067C114.944 158.8 100.544 160.533 83.2108 162.8C65.8775 165.2 51.3442 166.8 51.0775 166.4C50.6775 166.133 55.6108 145.067 61.8775 119.6L73.3442 73.4667L76.8108 74C81.7442 74.9333 130.277 80 132.944 80C134.811 79.8667 134.811 79.7333 133.077 78.6667C130.811 77.4667 45.6108 42.6667 42.4108 41.7333C40.6775 41.3333 38.0108 50.4 28.0108 89.6Z"
        fill="#ffffff80" />
</svg>