<svg width="370" height="400" viewBox="0 0 370 400" fill="none" xmlns="http://www.w3.org/2000/svg">
    <path d="M0 0H320V400H0V0Z" fill="#E1E7EA33" />
    <path
        d="M139.99 260C127.9 260 116.23 264.38 107.12 272.34C92.23 285.34 76.96 326.43 71.09 343.5L60.78 373.45L92.26 369.87C115.96 367.18 157.94 360.71 172.89 347.66C182.95 338.88 188.99 326.7 189.89 313.37C190.79 300.05 186.45 287.17 177.67 277.11C168.17 266.24 154.43 260 139.99 260Z"
        fill="#B0BEC5" />
    <path d="M20 20H300V320H20V20Z" fill="#90CAF933" />
    <path d="M20 160V320H300V200L190 160H20Z" fill="#E3F2FD66" />
    <path
        d="M45 130C35.19 130 26.35 134.06 20 140.56V189.45C26.35 195.94 35.19 200 45 200C64.33 200 80 184.33 80 165C80 145.67 64.33 130 45 130ZM140 130C132.044 130 124.413 133.161 118.787 138.787C113.161 144.413 110 152.044 110 160C110 167.956 113.161 175.587 118.787 181.213C124.413 186.839 132.044 190 140 190C147.956 190 155.587 186.839 161.213 181.213C166.839 175.587 170 167.956 170 160C170 152.044 166.839 144.413 161.213 138.787C155.587 133.161 147.956 130 140 130ZM300 171.84C296.86 170.72 293.53 170 290 170C273.43 170 260 183.43 260 200C260 216.57 273.43 230 290 230C293.53 230 296.86 229.28 300 228.16V171.84Z"
        fill="#E3F2FD66" />
    <path
        d="M90 100C79.3913 100 69.2172 104.214 61.7157 111.716C54.2143 119.217 50 129.391 50 140C50 150.609 54.2143 160.783 61.7157 168.284C69.2172 175.786 79.3913 180 90 180C100.609 180 110.783 175.786 118.284 168.284C125.786 160.783 130 150.609 130 140C130 129.391 125.786 119.217 118.284 111.716C110.783 104.214 100.609 100 90 100Z"
        fill="#E3F2FD66" />
    <path
        d="M190 140C182.044 140 174.413 143.161 168.787 148.787C163.161 154.413 160 162.044 160 170C160 177.956 163.161 185.587 168.787 191.213C174.413 196.839 182.044 200 190 200C197.956 200 205.587 196.839 211.213 191.213C216.839 185.587 220 177.956 220 170C220 162.044 216.839 154.413 211.213 148.787C205.587 143.161 197.956 140 190 140Z"
        fill="#E3F2FD66" />
    <path
        d="M240 130C229.391 130 219.217 134.214 211.716 141.716C204.214 149.217 200 159.391 200 170C200 180.609 204.214 190.783 211.716 198.284C219.217 205.786 229.391 210 240 210C250.609 210 260.783 205.786 268.284 198.284C275.786 190.783 280 180.609 280 170C280 159.391 275.786 149.217 268.284 141.716C260.783 134.214 250.609 130 240 130Z"
        fill="#E3F2FD66" />
    <path d="M300 216.21V170L160 300L151.67 320H187.73L300 216.21Z" fill="#BBDEFB99" />
    <path d="M20 320V190L65 230L110 190L160 230L185 210L300 300V320H20Z" fill="#1565C0b3" />
    <path d="M160 230L185 210L300 300V320H270L160 230Z" fill="#0D47A199" />
    <path d="M250.92 261.59L224.03 240.54L200.07 262.79L226.35 284.29L250.92 261.59Z" fill="#1A237E" />
    <path d="M20 190L65 230L20 270V190ZM200.07 262.79L160 300L151.67 320H187.73L226.35 284.29L200.07 262.79Z"
        fill="#0D47A199" />
    <path
        d="M144.17 280.84L353.47 112.34C357.66 108.75 363.97 109.23 367.57 113.43C371.16 117.62 370.67 123.93 366.48 127.53L169.3 309.8L144.17 280.84Z"
        fill="#FF1744e6" />
    <path
        d="M159.73 332.6C147.25 343.5 90 350 90 350C90 350 107.79 298.3 120.27 287.4C132.75 276.5 151.7 277.79 162.6 290.27C173.49 302.75 172.21 321.7 159.73 332.6Z"
        fill="white" />
</svg>