<svg xmlns="http://www.w3.org/2000/svg" viewBox="0 0 53 53">
    <title>Sass Logo Badge</title>
    <circle cx="26.5" cy="26.5" r="26.5" fill="#264de433" />
    <path fill="#2965f1"
        d="M43.1321 11.3733c-1.1961-4.7019-9.0018-6.2486-16.3949-3.6296-4.3926 1.557-9.1564 4.0111-12.5798 7.2179-4.073 3.8049-4.7123 7.1148-4.4545 8.4965.9383 4.8875 7.6304 8.0737 10.3835 10.4453l0 .0103c-.8146.4021-6.7436 3.4027-8.1356 6.4755-1.4642 3.2377.2372 5.5681 1.3611 5.8774 3.4852.9693 7.0632-.7733 8.9811-3.6399 1.856-2.7634 1.7014-6.3414.8971-8.115 1.1136-.2887 2.4128-.4228 4.0523-.2372 4.6504.5465 5.5578 3.444 5.3825 4.6607-.1753 1.2167-1.1446 1.887-1.4745 2.0829-.33.2062-.4228.2681-.4021.4228.0412.2165.1856.2062.464.165.3815-.0619 2.4438-.9899 2.5263-3.2274.1134-2.8459-2.6191-6.0321-7.4447-5.9496-1.9901.0309-3.2377.2268-4.1451.5568-.0619-.0722-.134-.1547-.2062-.2268-2.9903-3.1862-8.5068-5.4444-8.2696-9.7235.0825-1.557.629-5.6609 10.6103-10.6309 8.1768-4.073 14.7245-2.949 15.8588-.464 1.6189 3.5471-3.4955 10.1463-11.992 11.1053-3.2377.3609-4.9391-.8868-5.3619-1.3611-.4434-.4949-.5156-.5156-.6805-.4228-.2681.1547-.1031.5877 0 .8455.2578.6599 1.2889 1.8251 3.0728 2.4128 1.557.5156 5.3619.794 9.9504-.9796 5.166-2.0107 9.177-7.5479 8.0016-12.1673zm-21.8909 23.984c.3815 1.423.3403 2.7531-.0516 3.9595-.0412.134-.0928.2681-.1444.3918-.0516.134-.1134.2578-.1753.3918-.3093.6393-.7218 1.2374-1.227 1.7839-1.5364 1.6807-3.6914 2.3097-4.6091 1.7839-1.0002-.5774-.4949-2.949 1.2889-4.836 1.9179-2.0313 4.6813-3.3305 4.6813-3.3305l0-.0103c.0722-.0516.1547-.0928.2372-.134z" />
</svg>