<svg width="29" height="28" viewBox="0 0 29 28" fill="none" xmlns="http://www.w3.org/2000/svg">
<path fill-rule="evenodd" clip-rule="evenodd" d="M14.4069 27.233C17.5169 16.043 17.4269 15.993 19.6739 8.01595L20.2139 8.32995C20.5079 8.49995 20.7479 8.35995 20.7479 8.01995V4.21695C21.3439 2.11495 21.8119 0.490953 21.9479 0.00195312H24.3829L28.4279 3.77395L25.7719 6.08395L27.7819 8.26995L14.5399 27.233C14.4749 27.34 14.3849 27.316 14.4049 27.233H14.4069Z" fill="white"/>
<path fill-rule="evenodd" clip-rule="evenodd" d="M15.854 3.11704C15.974 3.11704 16.071 3.18305 16.071 3.26705V5.21705C16.071 5.29705 15.981 5.36505 15.861 5.36505H12.591C12.471 5.36505 12.371 5.29804 12.371 5.21504V3.26504C12.371 3.18304 12.471 3.11704 12.591 3.11704H15.861H15.854ZM19.89 0.957045L16.292 3.04704C16.334 3.11204 16.359 3.18705 16.359 3.26705V5.21705C16.359 5.31705 16.319 5.40705 16.249 5.48205L19.879 7.59205C20.119 7.73705 20.329 7.61905 20.329 7.33205V1.22004C20.329 0.932045 20.119 0.814045 19.879 0.958045L19.89 0.957045ZM12.077 5.21705V3.26705C12.077 3.18705 12.102 3.11204 12.143 3.04704L8.54497 0.957045C8.29797 0.814045 8.09497 0.932045 8.09497 1.21905V7.32905C8.09497 7.61905 8.29697 7.72905 8.54497 7.58905L12.18 5.47904C12.115 5.39904 12.076 5.30904 12.076 5.20904L12.077 5.21705Z" fill="white"/>
<path fill-rule="evenodd" clip-rule="evenodd" d="M13.886 27.233H14.02C10.91 16.043 11 15.993 8.754 8.016L8.214 8.33C7.92 8.5 7.679 8.36 7.679 8.02V4.217C7.08 2.114 6.61 0.49 6.47 0H4.04L0 3.773L2.655 6.083L0.645 8.269L13.885 27.229L13.886 27.233Z" fill="white"/>
<path d="M14.1151 9.43498C14.6574 9.43498 15.0971 8.99264 15.0971 8.44698C15.0971 7.90133 14.6574 7.45898 14.1151 7.45898C13.5727 7.45898 13.1331 7.90133 13.1331 8.44698C13.1331 8.99264 13.5727 9.43498 14.1151 9.43498Z" fill="white"/>
<path d="M14.1151 15.3119C14.6574 15.3119 15.0971 14.8696 15.0971 14.3239C15.0971 13.7783 14.6574 13.3359 14.1151 13.3359C13.5727 13.3359 13.1331 13.7783 13.1331 14.3239C13.1331 14.8696 13.5727 15.3119 14.1151 15.3119Z" fill="white"/>
<path d="M14.1151 21.1889C14.6574 21.1889 15.0971 20.7465 15.0971 20.2009C15.0971 19.6552 14.6574 19.2129 14.1151 19.2129C13.5727 19.2129 13.1331 19.6552 13.1331 20.2009C13.1331 20.7465 13.5727 21.1889 14.1151 21.1889Z" fill="white"/>
</svg>
