<svg width="484" height="425" viewBox="0 0 484 425" fill="none" xmlns="http://www.w3.org/2000/svg">
<path d="M481.132 202.176C484.705 208.364 484.705 215.988 481.132 222.176L370.18 414.352C366.607 420.54 360.004 424.352 352.859 424.352H130.953C123.808 424.352 117.205 420.54 113.633 414.352L2.67946 222.176C-0.893152 215.988 -0.893152 208.364 2.67946 202.176L113.633 9.9999C117.205 3.8119 123.808 0 130.953 0H352.859C360.004 0 366.607 3.812 370.18 10L481.132 202.176Z" fill="#32A9C3"/>
<path d="M419.369 303.086C419.369 310.231 415.557 316.834 409.369 320.406L251.833 411.359C245.645 414.932 238.021 414.932 231.833 411.359L74.2983 320.406C68.1103 316.834 64.2983 310.231 64.2983 303.086V121.18C64.2983 114.035 68.1103 107.432 74.2983 103.859L231.834 12.9065C238.022 9.3339 245.645 9.3339 251.833 12.9065L409.369 103.859C415.557 107.432 419.369 114.035 419.369 121.18V303.086Z" fill="white" fill-opacity="0.5"/>
<path d="M396.146 202.74C399.361 208.309 399.361 215.171 396.146 220.74L326.538 341.304C323.323 346.873 317.381 350.304 310.95 350.304H171.734C165.304 350.304 159.361 346.873 156.146 341.304L86.5382 220.74C83.3229 215.171 83.3229 208.309 86.5382 202.74L156.146 82.1763C159.361 76.6073 165.304 73.1763 171.734 73.1763H310.95C317.381 73.1763 323.323 76.6073 326.538 82.1763L396.146 202.74Z" fill="white" fill-opacity="0.5"/>
<path d="M333.864 150.635C338.196 153.135 340.864 157.757 340.864 162.759L340.865 261.593C340.865 266.595 338.196 271.217 333.865 273.717L248.272 323.135C243.94 325.635 238.603 325.635 234.272 323.135L148.679 273.717C144.347 271.217 141.679 266.595 141.679 261.593V162.759C141.679 157.757 144.347 153.135 148.679 150.635L234.272 101.217C238.603 98.7173 243.94 98.7173 248.272 101.217L333.864 150.635Z" fill="white"/>
<path d="M302.406 172.337C305.5 174.124 307.406 177.425 307.406 180.998V244.451C307.406 248.023 305.5 251.325 302.406 253.111L247.454 284.837C244.36 286.624 240.548 286.624 237.454 284.837L182.502 253.111C179.408 251.325 177.502 248.023 177.502 244.451V180.998C177.502 177.425 179.408 174.124 182.502 172.337L237.454 140.611C240.548 138.825 244.36 138.825 247.454 140.611L302.406 172.337Z" fill="#32A9C3"/>
</svg>
