<svg width="579" height="675" viewBox="0 0 579 675" fill="none" xmlns="http://www.w3.org/2000/svg">
<path fill-rule="evenodd" clip-rule="evenodd" d="M223.611 107.5L246.111 30C258.611 -10 316.111 -10 328.611 30L351.111 107.5C333.611 112.5 313.611 117.5 288.611 117.5C263.611 117.5 243.611 112.5 223.611 107.5ZM156.111 342.5C186.111 365 231.111 385 288.611 385C346.111 385 391.111 362.5 421.111 342.5L386.111 222.5C363.611 237.5 331.111 247.5 288.611 247.5C246.111 247.5 213.611 235 191.111 222.5L156.111 342.5ZM443.611 415L456.111 452.5C418.611 480 361.111 505 291.111 505C218.611 505 163.611 480 126.111 452.5L138.611 415H81.111C68.611 415 61.111 422.5 56.111 432.5L1.11098 642.5C-3.88902 657.5 8.61099 675 26.111 675H553.611C571.111 675 581.111 660 578.611 642.5L521.111 432.5C518.611 422.5 508.611 415 496.111 415H443.611Z" fill="black"/>
</svg>
