<svg xmlns="http://www.w3.org/2000/svg" viewBox="0 0 22 24.3982">
    <path fill="#8ed6fbb3"
        d="m21.3226 18.8043-9.8884 5.5939v-4.3559l6.1611-3.3901 3.7272 2.152zm.6773-.6125v-11.6968l-3.617 2.0904v7.5191l3.617 2.0872zm-21.3226.6125 9.8884 5.5939v-4.3559l-6.1644-3.3901-3.7239 2.152zm-.6773-.6125v-11.6968l3.617 2.0904v7.5191l-3.617 2.0872zm.4246-12.4552 10.1411-5.7365v4.2101l-6.4982 3.5749-.0519.0291-3.591-2.0775zm21.1509-0-10.1411-5.7366v4.2101l6.4982 3.5716.0519.0291 3.591-2.0742z" />
    <path fill="#1c78c0"
        d="m10.5658 19.0506-6.0801-3.3447v-6.6214l6.0801 3.51v6.4561zm.8686 0 6.0801-3.3415v-6.6246l-6.0801 3.51v6.4561zm-6.5371-10.731 6.1028-3.3545 6.1028 3.3545-6.1028 3.523-6.1028-3.523z" />
</svg>